# xmcd
#
# Track frame offsets:
#	150
#	21308
#	41367
#	61992
#	81132
#	100947
#	119286
#	130420
#	140992
#	151630
#	166368
#	180682
#	197330
#	214126
#	231908
#	248566
#	264404
#	283154
#	300356
#
# Disc length: 4267 seconds
#
# Revision: 0
# Processed by: cddbd v1.5.2PL0 Copyright (c) Steve Scherf et al.
# Submitted via: EZCDAudioConverter 4.0.9.1
#
DISCID=0510a913
DTITLE=陈慧琳 - 我疯了
DYEAR=1900
DGENRE=流行
TTITLE0=就是我
TTITLE1=我疯了
TTITLE2=花圆都有心跳
TTITLE3=活着
TTITLE4=暖我
TTITLE5=前所未见
TTITLE6=左邻右里
TTITLE7=高妹
TTITLE8=Shake Shake
TTITLE9=是我不好
TTITLE10=爱一个人
TTITLE11=躲猫猫
TTITLE12=千手千寻
TTITLE13=逃出生天
TTITLE14=闪亮每一天
TTITLE15=她一定很爱你
TTITLE16=记事本
TTITLE17=最佳位置
TTITLE18=Ask
EXTD=
EXTT0=
EXTT1=
EXTT2=
EXTT3=
EXTT4=
EXTT5=
EXTT6=
EXTT7=
EXTT8=
EXTT9=
EXTT10=
EXTT11=
EXTT12=
EXTT13=
EXTT14=
EXTT15=
EXTT16=
EXTT17=
EXTT18=
PLAYORDER=
